<mxfile host="app.diagrams.net" modified="2023-11-05T13:41:56.631Z" agent="5.0 (Macintosh; Intel Mac OS X 10_15_7) AppleWebKit/537.36 (KHTML, like Gecko) Chrome/118.0.0.0 Safari/537.36" etag="ZNUqO8auabXaVL1B0-_C" version="18.1.1" type="github">
  <diagram id="I1-IpXBTlW0sqMiSxeey" name="Page-1">
    <mxGraphModel dx="1854" dy="1177" grid="1" gridSize="10" guides="1" tooltips="1" connect="1" arrows="1" fold="1" page="1" pageScale="1" pageWidth="1169" pageHeight="827" math="0" shadow="0">
      <root>
        <mxCell id="0" />
        <mxCell id="1" parent="0" />
        <mxCell id="0iYLsLYwzfwLSAexDFJ0-28" value="" style="group" vertex="1" connectable="0" parent="1">
          <mxGeometry x="60" y="150" width="100" height="120" as="geometry" />
        </mxCell>
        <mxCell id="0iYLsLYwzfwLSAexDFJ0-19" value="" style="group;fontStyle=1" vertex="1" connectable="0" parent="0iYLsLYwzfwLSAexDFJ0-28">
          <mxGeometry width="100" height="90" as="geometry" />
        </mxCell>
        <mxCell id="0iYLsLYwzfwLSAexDFJ0-1" value="0" style="rounded=0;whiteSpace=wrap;html=1;fontStyle=1" vertex="1" parent="0iYLsLYwzfwLSAexDFJ0-19">
          <mxGeometry width="50" height="30" as="geometry" />
        </mxCell>
        <mxCell id="0iYLsLYwzfwLSAexDFJ0-15" value="2" style="rounded=0;whiteSpace=wrap;html=1;fontStyle=1" vertex="1" parent="0iYLsLYwzfwLSAexDFJ0-19">
          <mxGeometry x="50" width="50" height="30" as="geometry" />
        </mxCell>
        <mxCell id="0iYLsLYwzfwLSAexDFJ0-16" value="A (2)" style="rounded=0;whiteSpace=wrap;html=1;fontStyle=1" vertex="1" parent="0iYLsLYwzfwLSAexDFJ0-19">
          <mxGeometry y="30" width="100" height="30" as="geometry" />
        </mxCell>
        <mxCell id="0iYLsLYwzfwLSAexDFJ0-17" value="5" style="rounded=0;whiteSpace=wrap;html=1;fontStyle=1" vertex="1" parent="0iYLsLYwzfwLSAexDFJ0-19">
          <mxGeometry y="60" width="50" height="30" as="geometry" />
        </mxCell>
        <mxCell id="0iYLsLYwzfwLSAexDFJ0-18" value="7" style="rounded=0;whiteSpace=wrap;html=1;fontStyle=1" vertex="1" parent="0iYLsLYwzfwLSAexDFJ0-19">
          <mxGeometry x="50" y="60" width="50" height="30" as="geometry" />
        </mxCell>
        <mxCell id="0iYLsLYwzfwLSAexDFJ0-20" value="Slack: 5" style="text;html=1;strokeColor=none;fillColor=none;align=center;verticalAlign=middle;whiteSpace=wrap;rounded=0;" vertex="1" parent="0iYLsLYwzfwLSAexDFJ0-28">
          <mxGeometry x="20" y="90" width="60" height="30" as="geometry" />
        </mxCell>
        <mxCell id="0iYLsLYwzfwLSAexDFJ0-29" value="" style="group" vertex="1" connectable="0" parent="1">
          <mxGeometry x="60" y="340" width="100" height="120" as="geometry" />
        </mxCell>
        <mxCell id="0iYLsLYwzfwLSAexDFJ0-21" value="" style="group;fontStyle=1" vertex="1" connectable="0" parent="0iYLsLYwzfwLSAexDFJ0-29">
          <mxGeometry width="100" height="90" as="geometry" />
        </mxCell>
        <mxCell id="0iYLsLYwzfwLSAexDFJ0-22" value="0" style="rounded=0;whiteSpace=wrap;html=1;fontStyle=1" vertex="1" parent="0iYLsLYwzfwLSAexDFJ0-21">
          <mxGeometry width="50" height="30" as="geometry" />
        </mxCell>
        <mxCell id="0iYLsLYwzfwLSAexDFJ0-23" value="2" style="rounded=0;whiteSpace=wrap;html=1;fontStyle=1" vertex="1" parent="0iYLsLYwzfwLSAexDFJ0-21">
          <mxGeometry x="50" width="50" height="30" as="geometry" />
        </mxCell>
        <mxCell id="0iYLsLYwzfwLSAexDFJ0-24" value="B (2)" style="rounded=0;whiteSpace=wrap;html=1;fontStyle=1" vertex="1" parent="0iYLsLYwzfwLSAexDFJ0-21">
          <mxGeometry y="30" width="100" height="30" as="geometry" />
        </mxCell>
        <mxCell id="0iYLsLYwzfwLSAexDFJ0-25" value="0" style="rounded=0;whiteSpace=wrap;html=1;fontStyle=1" vertex="1" parent="0iYLsLYwzfwLSAexDFJ0-21">
          <mxGeometry y="60" width="50" height="30" as="geometry" />
        </mxCell>
        <mxCell id="0iYLsLYwzfwLSAexDFJ0-26" value="2" style="rounded=0;whiteSpace=wrap;html=1;fontStyle=1" vertex="1" parent="0iYLsLYwzfwLSAexDFJ0-21">
          <mxGeometry x="50" y="60" width="50" height="30" as="geometry" />
        </mxCell>
        <mxCell id="0iYLsLYwzfwLSAexDFJ0-27" value="Slack: 0" style="text;html=1;strokeColor=none;fillColor=none;align=center;verticalAlign=middle;whiteSpace=wrap;rounded=0;" vertex="1" parent="0iYLsLYwzfwLSAexDFJ0-29">
          <mxGeometry x="20" y="90" width="60" height="30" as="geometry" />
        </mxCell>
        <mxCell id="0iYLsLYwzfwLSAexDFJ0-30" value="" style="group" vertex="1" connectable="0" parent="1">
          <mxGeometry x="60" y="520" width="100" height="120" as="geometry" />
        </mxCell>
        <mxCell id="0iYLsLYwzfwLSAexDFJ0-31" value="" style="group;fontStyle=1" vertex="1" connectable="0" parent="0iYLsLYwzfwLSAexDFJ0-30">
          <mxGeometry width="100" height="90" as="geometry" />
        </mxCell>
        <mxCell id="0iYLsLYwzfwLSAexDFJ0-32" value="0" style="rounded=0;whiteSpace=wrap;html=1;fontStyle=1" vertex="1" parent="0iYLsLYwzfwLSAexDFJ0-31">
          <mxGeometry width="50" height="30" as="geometry" />
        </mxCell>
        <mxCell id="0iYLsLYwzfwLSAexDFJ0-33" value="1" style="rounded=0;whiteSpace=wrap;html=1;fontStyle=1" vertex="1" parent="0iYLsLYwzfwLSAexDFJ0-31">
          <mxGeometry x="50" width="50" height="30" as="geometry" />
        </mxCell>
        <mxCell id="0iYLsLYwzfwLSAexDFJ0-34" value="C (1)" style="rounded=0;whiteSpace=wrap;html=1;fontStyle=1" vertex="1" parent="0iYLsLYwzfwLSAexDFJ0-31">
          <mxGeometry y="30" width="100" height="30" as="geometry" />
        </mxCell>
        <mxCell id="0iYLsLYwzfwLSAexDFJ0-35" value="7" style="rounded=0;whiteSpace=wrap;html=1;fontStyle=1" vertex="1" parent="0iYLsLYwzfwLSAexDFJ0-31">
          <mxGeometry y="60" width="50" height="30" as="geometry" />
        </mxCell>
        <mxCell id="0iYLsLYwzfwLSAexDFJ0-36" value="8" style="rounded=0;whiteSpace=wrap;html=1;fontStyle=1" vertex="1" parent="0iYLsLYwzfwLSAexDFJ0-31">
          <mxGeometry x="50" y="60" width="50" height="30" as="geometry" />
        </mxCell>
        <mxCell id="0iYLsLYwzfwLSAexDFJ0-37" value="Slack: 7" style="text;html=1;strokeColor=none;fillColor=none;align=center;verticalAlign=middle;whiteSpace=wrap;rounded=0;" vertex="1" parent="0iYLsLYwzfwLSAexDFJ0-30">
          <mxGeometry x="20" y="90" width="60" height="30" as="geometry" />
        </mxCell>
        <mxCell id="0iYLsLYwzfwLSAexDFJ0-47" value="" style="group" vertex="1" connectable="0" parent="1">
          <mxGeometry x="270" y="230" width="100" height="120" as="geometry" />
        </mxCell>
        <mxCell id="0iYLsLYwzfwLSAexDFJ0-48" value="" style="group;fontStyle=1" vertex="1" connectable="0" parent="0iYLsLYwzfwLSAexDFJ0-47">
          <mxGeometry width="100" height="90" as="geometry" />
        </mxCell>
        <mxCell id="0iYLsLYwzfwLSAexDFJ0-49" value="2" style="rounded=0;whiteSpace=wrap;html=1;fontStyle=1" vertex="1" parent="0iYLsLYwzfwLSAexDFJ0-48">
          <mxGeometry width="50" height="30" as="geometry" />
        </mxCell>
        <mxCell id="0iYLsLYwzfwLSAexDFJ0-50" value="6" style="rounded=0;whiteSpace=wrap;html=1;fontStyle=1" vertex="1" parent="0iYLsLYwzfwLSAexDFJ0-48">
          <mxGeometry x="50" width="50" height="30" as="geometry" />
        </mxCell>
        <mxCell id="0iYLsLYwzfwLSAexDFJ0-51" value="D (4)" style="rounded=0;whiteSpace=wrap;html=1;fontStyle=1" vertex="1" parent="0iYLsLYwzfwLSAexDFJ0-48">
          <mxGeometry y="30" width="100" height="30" as="geometry" />
        </mxCell>
        <mxCell id="0iYLsLYwzfwLSAexDFJ0-52" value="4" style="rounded=0;whiteSpace=wrap;html=1;fontStyle=1" vertex="1" parent="0iYLsLYwzfwLSAexDFJ0-48">
          <mxGeometry y="60" width="50" height="30" as="geometry" />
        </mxCell>
        <mxCell id="0iYLsLYwzfwLSAexDFJ0-53" value="8" style="rounded=0;whiteSpace=wrap;html=1;fontStyle=1" vertex="1" parent="0iYLsLYwzfwLSAexDFJ0-48">
          <mxGeometry x="50" y="60" width="50" height="30" as="geometry" />
        </mxCell>
        <mxCell id="0iYLsLYwzfwLSAexDFJ0-54" value="Slack: 2" style="text;html=1;strokeColor=none;fillColor=none;align=center;verticalAlign=middle;whiteSpace=wrap;rounded=0;" vertex="1" parent="0iYLsLYwzfwLSAexDFJ0-47">
          <mxGeometry x="20" y="90" width="60" height="30" as="geometry" />
        </mxCell>
        <mxCell id="0iYLsLYwzfwLSAexDFJ0-55" value="" style="group" vertex="1" connectable="0" parent="1">
          <mxGeometry x="270" y="400" width="100" height="120" as="geometry" />
        </mxCell>
        <mxCell id="0iYLsLYwzfwLSAexDFJ0-56" value="" style="group;fontStyle=1" vertex="1" connectable="0" parent="0iYLsLYwzfwLSAexDFJ0-55">
          <mxGeometry width="100" height="90" as="geometry" />
        </mxCell>
        <mxCell id="0iYLsLYwzfwLSAexDFJ0-57" value="2" style="rounded=0;whiteSpace=wrap;html=1;fontStyle=1" vertex="1" parent="0iYLsLYwzfwLSAexDFJ0-56">
          <mxGeometry width="50" height="30" as="geometry" />
        </mxCell>
        <mxCell id="0iYLsLYwzfwLSAexDFJ0-58" value="7" style="rounded=0;whiteSpace=wrap;html=1;fontStyle=1" vertex="1" parent="0iYLsLYwzfwLSAexDFJ0-56">
          <mxGeometry x="50" width="50" height="30" as="geometry" />
        </mxCell>
        <mxCell id="0iYLsLYwzfwLSAexDFJ0-59" value="E (5)" style="rounded=0;whiteSpace=wrap;html=1;fontStyle=1" vertex="1" parent="0iYLsLYwzfwLSAexDFJ0-56">
          <mxGeometry y="30" width="100" height="30" as="geometry" />
        </mxCell>
        <mxCell id="0iYLsLYwzfwLSAexDFJ0-60" value="2" style="rounded=0;whiteSpace=wrap;html=1;fontStyle=1" vertex="1" parent="0iYLsLYwzfwLSAexDFJ0-56">
          <mxGeometry y="60" width="50" height="30" as="geometry" />
        </mxCell>
        <mxCell id="0iYLsLYwzfwLSAexDFJ0-61" value="7" style="rounded=0;whiteSpace=wrap;html=1;fontStyle=1" vertex="1" parent="0iYLsLYwzfwLSAexDFJ0-56">
          <mxGeometry x="50" y="60" width="50" height="30" as="geometry" />
        </mxCell>
        <mxCell id="0iYLsLYwzfwLSAexDFJ0-62" value="Slack: 0" style="text;html=1;strokeColor=none;fillColor=none;align=center;verticalAlign=middle;whiteSpace=wrap;rounded=0;" vertex="1" parent="0iYLsLYwzfwLSAexDFJ0-55">
          <mxGeometry x="20" y="90" width="60" height="30" as="geometry" />
        </mxCell>
        <mxCell id="0iYLsLYwzfwLSAexDFJ0-63" value="" style="group" vertex="1" connectable="0" parent="1">
          <mxGeometry x="484" y="170" width="100" height="120" as="geometry" />
        </mxCell>
        <mxCell id="0iYLsLYwzfwLSAexDFJ0-64" value="" style="group;fontStyle=1" vertex="1" connectable="0" parent="0iYLsLYwzfwLSAexDFJ0-63">
          <mxGeometry width="100" height="90" as="geometry" />
        </mxCell>
        <mxCell id="0iYLsLYwzfwLSAexDFJ0-65" value="6" style="rounded=0;whiteSpace=wrap;html=1;fontStyle=1" vertex="1" parent="0iYLsLYwzfwLSAexDFJ0-64">
          <mxGeometry width="50" height="30" as="geometry" />
        </mxCell>
        <mxCell id="0iYLsLYwzfwLSAexDFJ0-66" value="7" style="rounded=0;whiteSpace=wrap;html=1;fontStyle=1" vertex="1" parent="0iYLsLYwzfwLSAexDFJ0-64">
          <mxGeometry x="50" width="50" height="30" as="geometry" />
        </mxCell>
        <mxCell id="0iYLsLYwzfwLSAexDFJ0-67" value="F (1)" style="rounded=0;whiteSpace=wrap;html=1;fontStyle=1" vertex="1" parent="0iYLsLYwzfwLSAexDFJ0-64">
          <mxGeometry y="30" width="100" height="30" as="geometry" />
        </mxCell>
        <mxCell id="0iYLsLYwzfwLSAexDFJ0-68" value="8" style="rounded=0;whiteSpace=wrap;html=1;fontStyle=1" vertex="1" parent="0iYLsLYwzfwLSAexDFJ0-64">
          <mxGeometry y="60" width="50" height="30" as="geometry" />
        </mxCell>
        <mxCell id="0iYLsLYwzfwLSAexDFJ0-69" value="9" style="rounded=0;whiteSpace=wrap;html=1;fontStyle=1" vertex="1" parent="0iYLsLYwzfwLSAexDFJ0-64">
          <mxGeometry x="50" y="60" width="50" height="30" as="geometry" />
        </mxCell>
        <mxCell id="0iYLsLYwzfwLSAexDFJ0-70" value="Slack: 2" style="text;html=1;strokeColor=none;fillColor=none;align=center;verticalAlign=middle;whiteSpace=wrap;rounded=0;" vertex="1" parent="0iYLsLYwzfwLSAexDFJ0-63">
          <mxGeometry x="20" y="90" width="60" height="30" as="geometry" />
        </mxCell>
        <mxCell id="0iYLsLYwzfwLSAexDFJ0-71" value="" style="group" vertex="1" connectable="0" parent="1">
          <mxGeometry x="484" y="400" width="100" height="120" as="geometry" />
        </mxCell>
        <mxCell id="0iYLsLYwzfwLSAexDFJ0-72" value="" style="group;fontStyle=1" vertex="1" connectable="0" parent="0iYLsLYwzfwLSAexDFJ0-71">
          <mxGeometry width="100" height="90" as="geometry" />
        </mxCell>
        <mxCell id="0iYLsLYwzfwLSAexDFJ0-73" value="7" style="rounded=0;whiteSpace=wrap;html=1;fontStyle=1" vertex="1" parent="0iYLsLYwzfwLSAexDFJ0-72">
          <mxGeometry width="50" height="30" as="geometry" />
        </mxCell>
        <mxCell id="0iYLsLYwzfwLSAexDFJ0-74" value="13" style="rounded=0;whiteSpace=wrap;html=1;fontStyle=1" vertex="1" parent="0iYLsLYwzfwLSAexDFJ0-72">
          <mxGeometry x="50" width="50" height="30" as="geometry" />
        </mxCell>
        <mxCell id="0iYLsLYwzfwLSAexDFJ0-75" value="G (6)" style="rounded=0;whiteSpace=wrap;html=1;fontStyle=1" vertex="1" parent="0iYLsLYwzfwLSAexDFJ0-72">
          <mxGeometry y="30" width="100" height="30" as="geometry" />
        </mxCell>
        <mxCell id="0iYLsLYwzfwLSAexDFJ0-76" value="7" style="rounded=0;whiteSpace=wrap;html=1;fontStyle=1" vertex="1" parent="0iYLsLYwzfwLSAexDFJ0-72">
          <mxGeometry y="60" width="50" height="30" as="geometry" />
        </mxCell>
        <mxCell id="0iYLsLYwzfwLSAexDFJ0-77" value="13" style="rounded=0;whiteSpace=wrap;html=1;fontStyle=1" vertex="1" parent="0iYLsLYwzfwLSAexDFJ0-72">
          <mxGeometry x="50" y="60" width="50" height="30" as="geometry" />
        </mxCell>
        <mxCell id="0iYLsLYwzfwLSAexDFJ0-78" value="Slack: 0" style="text;html=1;strokeColor=none;fillColor=none;align=center;verticalAlign=middle;whiteSpace=wrap;rounded=0;" vertex="1" parent="0iYLsLYwzfwLSAexDFJ0-71">
          <mxGeometry x="20" y="90" width="60" height="30" as="geometry" />
        </mxCell>
        <mxCell id="0iYLsLYwzfwLSAexDFJ0-88" value="" style="group" vertex="1" connectable="0" parent="1">
          <mxGeometry x="650" y="170" width="100" height="120" as="geometry" />
        </mxCell>
        <mxCell id="0iYLsLYwzfwLSAexDFJ0-89" value="" style="group;fontStyle=1" vertex="1" connectable="0" parent="0iYLsLYwzfwLSAexDFJ0-88">
          <mxGeometry x="-4" width="100" height="90" as="geometry" />
        </mxCell>
        <mxCell id="0iYLsLYwzfwLSAexDFJ0-90" value="7" style="rounded=0;whiteSpace=wrap;html=1;fontStyle=1" vertex="1" parent="0iYLsLYwzfwLSAexDFJ0-89">
          <mxGeometry width="50" height="30" as="geometry" />
        </mxCell>
        <mxCell id="0iYLsLYwzfwLSAexDFJ0-91" value="11" style="rounded=0;whiteSpace=wrap;html=1;fontStyle=1" vertex="1" parent="0iYLsLYwzfwLSAexDFJ0-89">
          <mxGeometry x="50" width="50" height="30" as="geometry" />
        </mxCell>
        <mxCell id="0iYLsLYwzfwLSAexDFJ0-92" value="H (4)" style="rounded=0;whiteSpace=wrap;html=1;fontStyle=1" vertex="1" parent="0iYLsLYwzfwLSAexDFJ0-89">
          <mxGeometry y="30" width="100" height="30" as="geometry" />
        </mxCell>
        <mxCell id="0iYLsLYwzfwLSAexDFJ0-93" value="9" style="rounded=0;whiteSpace=wrap;html=1;fontStyle=1" vertex="1" parent="0iYLsLYwzfwLSAexDFJ0-89">
          <mxGeometry y="60" width="50" height="30" as="geometry" />
        </mxCell>
        <mxCell id="0iYLsLYwzfwLSAexDFJ0-94" value="13" style="rounded=0;whiteSpace=wrap;html=1;fontStyle=1" vertex="1" parent="0iYLsLYwzfwLSAexDFJ0-89">
          <mxGeometry x="50" y="60" width="50" height="30" as="geometry" />
        </mxCell>
        <mxCell id="0iYLsLYwzfwLSAexDFJ0-95" value="Slack: 2" style="text;html=1;strokeColor=none;fillColor=none;align=center;verticalAlign=middle;whiteSpace=wrap;rounded=0;" vertex="1" parent="0iYLsLYwzfwLSAexDFJ0-88">
          <mxGeometry x="20" y="90" width="60" height="30" as="geometry" />
        </mxCell>
        <mxCell id="0iYLsLYwzfwLSAexDFJ0-96" value="" style="group" vertex="1" connectable="0" parent="1">
          <mxGeometry x="830" y="400" width="100" height="120" as="geometry" />
        </mxCell>
        <mxCell id="0iYLsLYwzfwLSAexDFJ0-97" value="" style="group;fontStyle=1" vertex="1" connectable="0" parent="0iYLsLYwzfwLSAexDFJ0-96">
          <mxGeometry width="100" height="90" as="geometry" />
        </mxCell>
        <mxCell id="0iYLsLYwzfwLSAexDFJ0-98" value="13" style="rounded=0;whiteSpace=wrap;html=1;fontStyle=1" vertex="1" parent="0iYLsLYwzfwLSAexDFJ0-97">
          <mxGeometry width="50" height="30" as="geometry" />
        </mxCell>
        <mxCell id="0iYLsLYwzfwLSAexDFJ0-99" value="20" style="rounded=0;whiteSpace=wrap;html=1;fontStyle=1" vertex="1" parent="0iYLsLYwzfwLSAexDFJ0-97">
          <mxGeometry x="50" width="50" height="30" as="geometry" />
        </mxCell>
        <mxCell id="0iYLsLYwzfwLSAexDFJ0-100" value="I (7)" style="rounded=0;whiteSpace=wrap;html=1;fontStyle=1" vertex="1" parent="0iYLsLYwzfwLSAexDFJ0-97">
          <mxGeometry y="30" width="100" height="30" as="geometry" />
        </mxCell>
        <mxCell id="0iYLsLYwzfwLSAexDFJ0-101" value="13" style="rounded=0;whiteSpace=wrap;html=1;fontStyle=1" vertex="1" parent="0iYLsLYwzfwLSAexDFJ0-97">
          <mxGeometry y="60" width="50" height="30" as="geometry" />
        </mxCell>
        <mxCell id="0iYLsLYwzfwLSAexDFJ0-102" value="20" style="rounded=0;whiteSpace=wrap;html=1;fontStyle=1" vertex="1" parent="0iYLsLYwzfwLSAexDFJ0-97">
          <mxGeometry x="50" y="60" width="50" height="30" as="geometry" />
        </mxCell>
        <mxCell id="0iYLsLYwzfwLSAexDFJ0-103" value="Slack: 0" style="text;html=1;strokeColor=none;fillColor=none;align=center;verticalAlign=middle;whiteSpace=wrap;rounded=0;" vertex="1" parent="0iYLsLYwzfwLSAexDFJ0-96">
          <mxGeometry x="20" y="90" width="60" height="30" as="geometry" />
        </mxCell>
        <mxCell id="0iYLsLYwzfwLSAexDFJ0-104" style="edgeStyle=orthogonalEdgeStyle;rounded=1;orthogonalLoop=1;jettySize=auto;html=1;entryX=0;entryY=0.5;entryDx=0;entryDy=0;exitX=1;exitY=0.25;exitDx=0;exitDy=0;" edge="1" parent="1" source="0iYLsLYwzfwLSAexDFJ0-16" target="0iYLsLYwzfwLSAexDFJ0-51">
          <mxGeometry relative="1" as="geometry" />
        </mxCell>
        <mxCell id="0iYLsLYwzfwLSAexDFJ0-106" style="edgeStyle=orthogonalEdgeStyle;rounded=1;orthogonalLoop=1;jettySize=auto;html=1;" edge="1" parent="1" source="0iYLsLYwzfwLSAexDFJ0-51">
          <mxGeometry relative="1" as="geometry">
            <mxPoint x="484" y="230" as="targetPoint" />
            <Array as="points">
              <mxPoint x="440" y="275" />
              <mxPoint x="440" y="230" />
              <mxPoint x="484" y="230" />
            </Array>
          </mxGeometry>
        </mxCell>
        <mxCell id="0iYLsLYwzfwLSAexDFJ0-107" style="edgeStyle=orthogonalEdgeStyle;rounded=1;orthogonalLoop=1;jettySize=auto;html=1;entryX=0;entryY=0.5;entryDx=0;entryDy=0;" edge="1" parent="1" source="0iYLsLYwzfwLSAexDFJ0-34" target="0iYLsLYwzfwLSAexDFJ0-67">
          <mxGeometry relative="1" as="geometry">
            <Array as="points">
              <mxPoint x="400" y="565" />
              <mxPoint x="400" y="215" />
            </Array>
          </mxGeometry>
        </mxCell>
        <mxCell id="0iYLsLYwzfwLSAexDFJ0-108" style="edgeStyle=orthogonalEdgeStyle;rounded=1;orthogonalLoop=1;jettySize=auto;html=1;entryX=0;entryY=0.5;entryDx=0;entryDy=0;" edge="1" parent="1" source="0iYLsLYwzfwLSAexDFJ0-24" target="0iYLsLYwzfwLSAexDFJ0-59">
          <mxGeometry relative="1" as="geometry" />
        </mxCell>
        <mxCell id="0iYLsLYwzfwLSAexDFJ0-109" style="edgeStyle=orthogonalEdgeStyle;rounded=1;orthogonalLoop=1;jettySize=auto;html=1;entryX=0;entryY=0.75;entryDx=0;entryDy=0;exitX=1;exitY=0.75;exitDx=0;exitDy=0;" edge="1" parent="1" source="0iYLsLYwzfwLSAexDFJ0-59" target="0iYLsLYwzfwLSAexDFJ0-75">
          <mxGeometry relative="1" as="geometry" />
        </mxCell>
        <mxCell id="0iYLsLYwzfwLSAexDFJ0-110" style="edgeStyle=orthogonalEdgeStyle;rounded=1;orthogonalLoop=1;jettySize=auto;html=1;entryX=0.006;entryY=0.357;entryDx=0;entryDy=0;entryPerimeter=0;exitX=1;exitY=0.75;exitDx=0;exitDy=0;" edge="1" parent="1" source="0iYLsLYwzfwLSAexDFJ0-16" target="0iYLsLYwzfwLSAexDFJ0-75">
          <mxGeometry relative="1" as="geometry">
            <Array as="points">
              <mxPoint x="200" y="203" />
              <mxPoint x="200" y="360" />
              <mxPoint x="440" y="360" />
              <mxPoint x="440" y="441" />
            </Array>
          </mxGeometry>
        </mxCell>
        <mxCell id="0iYLsLYwzfwLSAexDFJ0-111" style="edgeStyle=orthogonalEdgeStyle;rounded=1;orthogonalLoop=1;jettySize=auto;html=1;" edge="1" parent="1" source="0iYLsLYwzfwLSAexDFJ0-67" target="0iYLsLYwzfwLSAexDFJ0-92">
          <mxGeometry relative="1" as="geometry" />
        </mxCell>
        <mxCell id="0iYLsLYwzfwLSAexDFJ0-112" style="edgeStyle=orthogonalEdgeStyle;rounded=1;orthogonalLoop=1;jettySize=auto;html=1;entryX=0;entryY=0.25;entryDx=0;entryDy=0;" edge="1" parent="1" source="0iYLsLYwzfwLSAexDFJ0-92" target="0iYLsLYwzfwLSAexDFJ0-100">
          <mxGeometry relative="1" as="geometry" />
        </mxCell>
        <mxCell id="0iYLsLYwzfwLSAexDFJ0-113" style="edgeStyle=orthogonalEdgeStyle;rounded=1;orthogonalLoop=1;jettySize=auto;html=1;entryX=0;entryY=0.75;entryDx=0;entryDy=0;exitX=1;exitY=0.75;exitDx=0;exitDy=0;" edge="1" parent="1" source="0iYLsLYwzfwLSAexDFJ0-75" target="0iYLsLYwzfwLSAexDFJ0-100">
          <mxGeometry relative="1" as="geometry" />
        </mxCell>
      </root>
    </mxGraphModel>
  </diagram>
</mxfile>
